<mxfile host="app.diagrams.net" modified="2023-12-20T11:38:39.730Z" agent="Mozilla/5.0 (Windows NT 10.0; Win64; x64) AppleWebKit/537.36 (KHTML, like Gecko) Chrome/120.0.0.0 Safari/537.36" etag="8UeJRd2Uo0HoZtA7d1YF" version="22.1.11" type="github">
  <diagram name="Página-1" id="JfAC0MgKuWLQd_UvBgfP">
    <mxGraphModel dx="2059" dy="2307" grid="1" gridSize="10" guides="1" tooltips="1" connect="1" arrows="1" fold="1" page="1" pageScale="1" pageWidth="827" pageHeight="1169" math="0" shadow="0">
      <root>
        <mxCell id="0" />
        <mxCell id="1" parent="0" />
        <mxCell id="n-3YmuEq_ArL1xh5hyIa-17" value="Idpoblacion" style="ellipse;whiteSpace=wrap;html=1;sketch=1;curveFitting=1;jiggle=2;fillColor=#e1d5e7;strokeColor=#9673a6;" parent="1" vertex="1">
          <mxGeometry x="920" y="470" width="90" height="40" as="geometry" />
        </mxCell>
        <mxCell id="n-3YmuEq_ArL1xh5hyIa-1" value="detallePedido&lt;br&gt;" style="rounded=0;whiteSpace=wrap;html=1;" parent="1" vertex="1">
          <mxGeometry x="425" y="380" width="150" height="90" as="geometry" />
        </mxCell>
        <mxCell id="n-3YmuEq_ArL1xh5hyIa-29" style="edgeStyle=orthogonalEdgeStyle;rounded=0;orthogonalLoop=1;jettySize=auto;html=1;entryX=1;entryY=0.5;entryDx=0;entryDy=0;" parent="1" source="n-3YmuEq_ArL1xh5hyIa-2" target="n-3YmuEq_ArL1xh5hyIa-10" edge="1">
          <mxGeometry relative="1" as="geometry" />
        </mxCell>
        <mxCell id="N4iwnwEbTLdC6Yckzgo1-21" style="edgeStyle=none;curved=1;rounded=0;orthogonalLoop=1;jettySize=auto;html=1;entryX=0.5;entryY=0;entryDx=0;entryDy=0;fontSize=12;startSize=8;endSize=8;" parent="1" source="n-3YmuEq_ArL1xh5hyIa-2" target="N4iwnwEbTLdC6Yckzgo1-20" edge="1">
          <mxGeometry relative="1" as="geometry" />
        </mxCell>
        <mxCell id="n-3YmuEq_ArL1xh5hyIa-2" value="socios" style="rounded=0;whiteSpace=wrap;html=1;" parent="1" vertex="1">
          <mxGeometry x="790" y="90" width="120" height="60" as="geometry" />
        </mxCell>
        <mxCell id="n-3YmuEq_ArL1xh5hyIa-30" style="edgeStyle=orthogonalEdgeStyle;rounded=0;orthogonalLoop=1;jettySize=auto;html=1;" parent="1" source="n-3YmuEq_ArL1xh5hyIa-3" target="n-3YmuEq_ArL1xh5hyIa-10" edge="1">
          <mxGeometry relative="1" as="geometry" />
        </mxCell>
        <mxCell id="n-3YmuEq_ArL1xh5hyIa-3" value="Pedidos" style="rounded=0;whiteSpace=wrap;html=1;" parent="1" vertex="1">
          <mxGeometry x="440" y="90" width="120" height="60" as="geometry" />
        </mxCell>
        <mxCell id="N4iwnwEbTLdC6Yckzgo1-43" style="edgeStyle=none;curved=1;rounded=0;orthogonalLoop=1;jettySize=auto;html=1;entryX=0;entryY=0.5;entryDx=0;entryDy=0;fontSize=12;startSize=8;endSize=8;" parent="1" source="n-3YmuEq_ArL1xh5hyIa-5" target="N4iwnwEbTLdC6Yckzgo1-42" edge="1">
          <mxGeometry relative="1" as="geometry" />
        </mxCell>
        <mxCell id="n-3YmuEq_ArL1xh5hyIa-5" value="provincia" style="rounded=0;whiteSpace=wrap;html=1;" parent="1" vertex="1">
          <mxGeometry x="335" y="615" width="125" height="55" as="geometry" />
        </mxCell>
        <mxCell id="N4iwnwEbTLdC6Yckzgo1-22" style="edgeStyle=none;curved=1;rounded=0;orthogonalLoop=1;jettySize=auto;html=1;entryX=0.5;entryY=1;entryDx=0;entryDy=0;fontSize=12;startSize=8;endSize=8;" parent="1" source="n-3YmuEq_ArL1xh5hyIa-6" target="N4iwnwEbTLdC6Yckzgo1-20" edge="1">
          <mxGeometry relative="1" as="geometry" />
        </mxCell>
        <mxCell id="N4iwnwEbTLdC6Yckzgo1-32" style="edgeStyle=none;curved=1;rounded=0;orthogonalLoop=1;jettySize=auto;html=1;entryX=1;entryY=0.5;entryDx=0;entryDy=0;fontSize=12;startSize=8;endSize=8;" parent="1" source="n-3YmuEq_ArL1xh5hyIa-6" target="N4iwnwEbTLdC6Yckzgo1-31" edge="1">
          <mxGeometry relative="1" as="geometry" />
        </mxCell>
        <mxCell id="n-3YmuEq_ArL1xh5hyIa-6" value="poblaciones" style="rounded=0;whiteSpace=wrap;html=1;" parent="1" vertex="1">
          <mxGeometry x="880" y="615" width="120" height="60" as="geometry" />
        </mxCell>
        <mxCell id="N4iwnwEbTLdC6Yckzgo1-5" style="edgeStyle=none;curved=1;rounded=0;orthogonalLoop=1;jettySize=auto;html=1;entryX=0;entryY=0;entryDx=0;entryDy=0;fontSize=12;startSize=8;endSize=8;" parent="1" source="n-3YmuEq_ArL1xh5hyIa-7" target="n-3YmuEq_ArL1xh5hyIa-3" edge="1">
          <mxGeometry relative="1" as="geometry" />
        </mxCell>
        <mxCell id="n-3YmuEq_ArL1xh5hyIa-7" value="&lt;u&gt;Idpedido&lt;/u&gt;" style="ellipse;whiteSpace=wrap;html=1;" parent="1" vertex="1">
          <mxGeometry x="270" y="30" width="90" height="70" as="geometry" />
        </mxCell>
        <mxCell id="N4iwnwEbTLdC6Yckzgo1-9" style="edgeStyle=none;curved=1;rounded=0;orthogonalLoop=1;jettySize=auto;html=1;entryX=1;entryY=0.25;entryDx=0;entryDy=0;fontSize=12;startSize=8;endSize=8;" parent="1" source="n-3YmuEq_ArL1xh5hyIa-8" target="n-3YmuEq_ArL1xh5hyIa-3" edge="1">
          <mxGeometry relative="1" as="geometry" />
        </mxCell>
        <mxCell id="n-3YmuEq_ArL1xh5hyIa-8" value="&lt;u&gt;Idsocio&lt;/u&gt;" style="ellipse;whiteSpace=wrap;html=1;fillColor=#e1d5e7;strokeColor=#9673a6;" parent="1" vertex="1">
          <mxGeometry x="369" y="-50" width="90" height="70" as="geometry" />
        </mxCell>
        <mxCell id="n-3YmuEq_ArL1xh5hyIa-9" value="aval" style="rhombus;whiteSpace=wrap;html=1;" parent="1" vertex="1">
          <mxGeometry x="710" y="-90" width="80" height="80" as="geometry" />
        </mxCell>
        <mxCell id="n-3YmuEq_ArL1xh5hyIa-10" value="compran" style="rhombus;whiteSpace=wrap;html=1;" parent="1" vertex="1">
          <mxGeometry x="640" y="80" width="80" height="80" as="geometry" />
        </mxCell>
        <mxCell id="n-3YmuEq_ArL1xh5hyIa-19" style="edgeStyle=orthogonalEdgeStyle;rounded=0;orthogonalLoop=1;jettySize=auto;html=1;" parent="1" source="n-3YmuEq_ArL1xh5hyIa-11" edge="1">
          <mxGeometry relative="1" as="geometry">
            <mxPoint x="850" y="80" as="targetPoint" />
          </mxGeometry>
        </mxCell>
        <mxCell id="n-3YmuEq_ArL1xh5hyIa-11" value="&lt;u&gt;id_socio_avalador&lt;/u&gt;" style="ellipse;whiteSpace=wrap;html=1;fillColor=#e1d5e7;strokeColor=#9673a6;" parent="1" vertex="1">
          <mxGeometry x="890" width="90" height="70" as="geometry" />
        </mxCell>
        <mxCell id="n-3YmuEq_ArL1xh5hyIa-12" value="Idsocio" style="ellipse;whiteSpace=wrap;html=1;fontStyle=4" parent="1" vertex="1">
          <mxGeometry x="940" y="80" width="90" height="63" as="geometry" />
        </mxCell>
        <mxCell id="n-3YmuEq_ArL1xh5hyIa-13" value="dni" style="ellipse;whiteSpace=wrap;html=1;" parent="1" vertex="1">
          <mxGeometry x="960" y="180" width="90" height="40" as="geometry" />
        </mxCell>
        <mxCell id="n-3YmuEq_ArL1xh5hyIa-14" value="nombre" style="ellipse;whiteSpace=wrap;html=1;" parent="1" vertex="1">
          <mxGeometry x="920" y="240" width="90" height="60" as="geometry" />
        </mxCell>
        <mxCell id="n-3YmuEq_ArL1xh5hyIa-23" style="edgeStyle=orthogonalEdgeStyle;rounded=0;orthogonalLoop=1;jettySize=auto;html=1;" parent="1" source="n-3YmuEq_ArL1xh5hyIa-15" edge="1">
          <mxGeometry relative="1" as="geometry">
            <mxPoint x="900" y="160" as="targetPoint" />
          </mxGeometry>
        </mxCell>
        <mxCell id="n-3YmuEq_ArL1xh5hyIa-15" value="apellidos" style="ellipse;whiteSpace=wrap;html=1;" parent="1" vertex="1">
          <mxGeometry x="920" y="310" width="90" height="60" as="geometry" />
        </mxCell>
        <mxCell id="n-3YmuEq_ArL1xh5hyIa-24" style="edgeStyle=orthogonalEdgeStyle;rounded=0;orthogonalLoop=1;jettySize=auto;html=1;" parent="1" source="n-3YmuEq_ArL1xh5hyIa-16" edge="1">
          <mxGeometry relative="1" as="geometry">
            <mxPoint x="900" y="160" as="targetPoint" />
          </mxGeometry>
        </mxCell>
        <mxCell id="n-3YmuEq_ArL1xh5hyIa-16" value="teléfono" style="ellipse;whiteSpace=wrap;html=1;" parent="1" vertex="1">
          <mxGeometry x="920" y="380" width="90" height="60" as="geometry" />
        </mxCell>
        <mxCell id="n-3YmuEq_ArL1xh5hyIa-25" style="edgeStyle=orthogonalEdgeStyle;rounded=0;orthogonalLoop=1;jettySize=auto;html=1;" parent="1" source="n-3YmuEq_ArL1xh5hyIa-17" edge="1">
          <mxGeometry relative="1" as="geometry">
            <mxPoint x="900" y="170" as="targetPoint" />
          </mxGeometry>
        </mxCell>
        <mxCell id="N4iwnwEbTLdC6Yckzgo1-10" value="" style="edgeStyle=none;curved=1;rounded=0;orthogonalLoop=1;jettySize=auto;html=1;fontSize=12;startSize=8;endSize=8;" parent="1" source="n-3YmuEq_ArL1xh5hyIa-18" target="n-3YmuEq_ArL1xh5hyIa-3" edge="1">
          <mxGeometry relative="1" as="geometry" />
        </mxCell>
        <mxCell id="N4iwnwEbTLdC6Yckzgo1-11" style="edgeStyle=none;curved=1;rounded=0;orthogonalLoop=1;jettySize=auto;html=1;entryX=0.5;entryY=0;entryDx=0;entryDy=0;fontSize=12;startSize=8;endSize=8;" parent="1" source="n-3YmuEq_ArL1xh5hyIa-18" target="n-3YmuEq_ArL1xh5hyIa-1" edge="1">
          <mxGeometry relative="1" as="geometry" />
        </mxCell>
        <mxCell id="n-3YmuEq_ArL1xh5hyIa-18" value="tiene" style="rhombus;whiteSpace=wrap;html=1;" parent="1" vertex="1">
          <mxGeometry x="520" y="240" width="80" height="60" as="geometry" />
        </mxCell>
        <mxCell id="n-3YmuEq_ArL1xh5hyIa-20" style="edgeStyle=orthogonalEdgeStyle;rounded=0;orthogonalLoop=1;jettySize=auto;html=1;exitX=0;exitY=0;exitDx=0;exitDy=0;entryX=0.95;entryY=0.033;entryDx=0;entryDy=0;entryPerimeter=0;" parent="1" source="n-3YmuEq_ArL1xh5hyIa-12" target="n-3YmuEq_ArL1xh5hyIa-2" edge="1">
          <mxGeometry relative="1" as="geometry" />
        </mxCell>
        <mxCell id="n-3YmuEq_ArL1xh5hyIa-21" style="edgeStyle=orthogonalEdgeStyle;rounded=0;orthogonalLoop=1;jettySize=auto;html=1;entryX=0.95;entryY=1.033;entryDx=0;entryDy=0;entryPerimeter=0;" parent="1" source="n-3YmuEq_ArL1xh5hyIa-13" target="n-3YmuEq_ArL1xh5hyIa-2" edge="1">
          <mxGeometry relative="1" as="geometry" />
        </mxCell>
        <mxCell id="n-3YmuEq_ArL1xh5hyIa-22" style="edgeStyle=orthogonalEdgeStyle;rounded=0;orthogonalLoop=1;jettySize=auto;html=1;entryX=0.917;entryY=1.033;entryDx=0;entryDy=0;entryPerimeter=0;" parent="1" source="n-3YmuEq_ArL1xh5hyIa-14" target="n-3YmuEq_ArL1xh5hyIa-2" edge="1">
          <mxGeometry relative="1" as="geometry" />
        </mxCell>
        <mxCell id="N4iwnwEbTLdC6Yckzgo1-6" style="edgeStyle=none;curved=1;rounded=0;orthogonalLoop=1;jettySize=auto;html=1;entryX=0.25;entryY=1;entryDx=0;entryDy=0;fontSize=12;startSize=8;endSize=8;" parent="1" source="n-3YmuEq_ArL1xh5hyIa-26" target="n-3YmuEq_ArL1xh5hyIa-3" edge="1">
          <mxGeometry relative="1" as="geometry" />
        </mxCell>
        <mxCell id="n-3YmuEq_ArL1xh5hyIa-26" value="forma de envio" style="ellipse;whiteSpace=wrap;html=1;" parent="1" vertex="1">
          <mxGeometry x="260" y="143" width="90" height="67" as="geometry" />
        </mxCell>
        <mxCell id="n-3YmuEq_ArL1xh5hyIa-27" style="edgeStyle=orthogonalEdgeStyle;rounded=0;orthogonalLoop=1;jettySize=auto;html=1;entryX=0.342;entryY=-0.05;entryDx=0;entryDy=0;entryPerimeter=0;" parent="1" source="n-3YmuEq_ArL1xh5hyIa-9" target="n-3YmuEq_ArL1xh5hyIa-2" edge="1">
          <mxGeometry relative="1" as="geometry" />
        </mxCell>
        <mxCell id="n-3YmuEq_ArL1xh5hyIa-28" style="edgeStyle=orthogonalEdgeStyle;rounded=0;orthogonalLoop=1;jettySize=auto;html=1;entryX=0.433;entryY=-0.014;entryDx=0;entryDy=0;entryPerimeter=0;" parent="1" source="n-3YmuEq_ArL1xh5hyIa-9" target="n-3YmuEq_ArL1xh5hyIa-11" edge="1">
          <mxGeometry relative="1" as="geometry" />
        </mxCell>
        <mxCell id="N4iwnwEbTLdC6Yckzgo1-8" style="edgeStyle=none;curved=1;rounded=0;orthogonalLoop=1;jettySize=auto;html=1;entryX=0.75;entryY=1;entryDx=0;entryDy=0;fontSize=12;startSize=8;endSize=8;" parent="1" source="N4iwnwEbTLdC6Yckzgo1-7" target="n-3YmuEq_ArL1xh5hyIa-3" edge="1">
          <mxGeometry relative="1" as="geometry" />
        </mxCell>
        <mxCell id="N4iwnwEbTLdC6Yckzgo1-7" value="forma de pago" style="ellipse;whiteSpace=wrap;html=1;" parent="1" vertex="1">
          <mxGeometry x="340" y="200" width="120" height="77" as="geometry" />
        </mxCell>
        <mxCell id="N4iwnwEbTLdC6Yckzgo1-15" style="edgeStyle=none;curved=1;rounded=0;orthogonalLoop=1;jettySize=auto;html=1;entryX=0;entryY=0.25;entryDx=0;entryDy=0;fontSize=12;startSize=8;endSize=8;" parent="1" source="N4iwnwEbTLdC6Yckzgo1-12" target="n-3YmuEq_ArL1xh5hyIa-1" edge="1">
          <mxGeometry relative="1" as="geometry" />
        </mxCell>
        <mxCell id="N4iwnwEbTLdC6Yckzgo1-12" value="&lt;u&gt;Idpedido&lt;/u&gt;" style="ellipse;whiteSpace=wrap;html=1;" parent="1" vertex="1">
          <mxGeometry x="230" y="300" width="110" height="70" as="geometry" />
        </mxCell>
        <mxCell id="N4iwnwEbTLdC6Yckzgo1-14" style="edgeStyle=none;curved=1;rounded=0;orthogonalLoop=1;jettySize=auto;html=1;fontSize=12;startSize=8;endSize=8;" parent="1" source="N4iwnwEbTLdC6Yckzgo1-13" target="n-3YmuEq_ArL1xh5hyIa-1" edge="1">
          <mxGeometry relative="1" as="geometry" />
        </mxCell>
        <mxCell id="N4iwnwEbTLdC6Yckzgo1-13" value="consecutivo" style="ellipse;whiteSpace=wrap;html=1;fontSize=16;" parent="1" vertex="1">
          <mxGeometry x="220" y="390" width="115" height="70" as="geometry" />
        </mxCell>
        <mxCell id="N4iwnwEbTLdC6Yckzgo1-19" style="edgeStyle=none;curved=1;rounded=0;orthogonalLoop=1;jettySize=auto;html=1;entryX=0.5;entryY=1;entryDx=0;entryDy=0;fontSize=12;startSize=8;endSize=8;" parent="1" source="N4iwnwEbTLdC6Yckzgo1-16" target="n-3YmuEq_ArL1xh5hyIa-1" edge="1">
          <mxGeometry relative="1" as="geometry" />
        </mxCell>
        <mxCell id="N4iwnwEbTLdC6Yckzgo1-16" value="cantidad" style="ellipse;whiteSpace=wrap;html=1;fontSize=16;" parent="1" vertex="1">
          <mxGeometry x="475" y="480" width="120" height="80" as="geometry" />
        </mxCell>
        <mxCell id="N4iwnwEbTLdC6Yckzgo1-18" style="edgeStyle=none;curved=1;rounded=0;orthogonalLoop=1;jettySize=auto;html=1;entryX=0.25;entryY=1;entryDx=0;entryDy=0;fontSize=12;startSize=8;endSize=8;" parent="1" source="N4iwnwEbTLdC6Yckzgo1-17" target="n-3YmuEq_ArL1xh5hyIa-1" edge="1">
          <mxGeometry relative="1" as="geometry" />
        </mxCell>
        <mxCell id="N4iwnwEbTLdC6Yckzgo1-17" value="isbn" style="ellipse;whiteSpace=wrap;html=1;fontSize=16;" parent="1" vertex="1">
          <mxGeometry x="280" y="470" width="120" height="80" as="geometry" />
        </mxCell>
        <mxCell id="N4iwnwEbTLdC6Yckzgo1-20" value="vive" style="rhombus;whiteSpace=wrap;html=1;fontSize=16;" parent="1" vertex="1">
          <mxGeometry x="740" y="290" width="80" height="80" as="geometry" />
        </mxCell>
        <mxCell id="N4iwnwEbTLdC6Yckzgo1-24" style="edgeStyle=none;curved=1;rounded=0;orthogonalLoop=1;jettySize=auto;html=1;entryX=0.25;entryY=0;entryDx=0;entryDy=0;fontSize=12;startSize=8;endSize=8;" parent="1" source="N4iwnwEbTLdC6Yckzgo1-23" target="n-3YmuEq_ArL1xh5hyIa-6" edge="1">
          <mxGeometry relative="1" as="geometry" />
        </mxCell>
        <mxCell id="N4iwnwEbTLdC6Yckzgo1-23" value="idprovincia" style="ellipse;whiteSpace=wrap;html=1;fontSize=16;fillColor=#e1d5e7;strokeColor=#9673a6;" parent="1" vertex="1">
          <mxGeometry x="690" y="490" width="120" height="80" as="geometry" />
        </mxCell>
        <mxCell id="N4iwnwEbTLdC6Yckzgo1-28" style="edgeStyle=none;curved=1;rounded=0;orthogonalLoop=1;jettySize=auto;html=1;fontSize=12;startSize=8;endSize=8;entryX=1;entryY=0.5;entryDx=0;entryDy=0;" parent="1" source="N4iwnwEbTLdC6Yckzgo1-25" target="n-3YmuEq_ArL1xh5hyIa-6" edge="1">
          <mxGeometry relative="1" as="geometry">
            <mxPoint x="1020" y="660" as="targetPoint" />
          </mxGeometry>
        </mxCell>
        <mxCell id="N4iwnwEbTLdC6Yckzgo1-25" value="nombre" style="ellipse;whiteSpace=wrap;html=1;fontSize=16;" parent="1" vertex="1">
          <mxGeometry x="1070" y="700" width="110" height="80" as="geometry" />
        </mxCell>
        <mxCell id="N4iwnwEbTLdC6Yckzgo1-29" style="edgeStyle=none;curved=1;rounded=0;orthogonalLoop=1;jettySize=auto;html=1;entryX=0.75;entryY=1;entryDx=0;entryDy=0;fontSize=12;startSize=8;endSize=8;" parent="1" source="N4iwnwEbTLdC6Yckzgo1-26" target="n-3YmuEq_ArL1xh5hyIa-6" edge="1">
          <mxGeometry relative="1" as="geometry" />
        </mxCell>
        <mxCell id="N4iwnwEbTLdC6Yckzgo1-26" value="idPoblacion" style="ellipse;whiteSpace=wrap;html=1;fontSize=16;" parent="1" vertex="1">
          <mxGeometry x="1060" y="615" width="120" height="65" as="geometry" />
        </mxCell>
        <mxCell id="N4iwnwEbTLdC6Yckzgo1-30" style="edgeStyle=none;curved=1;rounded=0;orthogonalLoop=1;jettySize=auto;html=1;entryX=0.75;entryY=0;entryDx=0;entryDy=0;fontSize=12;startSize=8;endSize=8;" parent="1" source="N4iwnwEbTLdC6Yckzgo1-27" target="n-3YmuEq_ArL1xh5hyIa-6" edge="1">
          <mxGeometry relative="1" as="geometry" />
        </mxCell>
        <mxCell id="N4iwnwEbTLdC6Yckzgo1-27" value="habitantes" style="ellipse;whiteSpace=wrap;html=1;fontSize=16;" parent="1" vertex="1">
          <mxGeometry x="1060" y="520" width="120" height="80" as="geometry" />
        </mxCell>
        <mxCell id="N4iwnwEbTLdC6Yckzgo1-33" style="edgeStyle=none;curved=1;rounded=0;orthogonalLoop=1;jettySize=auto;html=1;entryX=1;entryY=0.5;entryDx=0;entryDy=0;fontSize=12;startSize=8;endSize=8;" parent="1" source="N4iwnwEbTLdC6Yckzgo1-31" target="n-3YmuEq_ArL1xh5hyIa-5" edge="1">
          <mxGeometry relative="1" as="geometry" />
        </mxCell>
        <mxCell id="N4iwnwEbTLdC6Yckzgo1-31" value="tiene" style="rhombus;whiteSpace=wrap;html=1;fontSize=16;" parent="1" vertex="1">
          <mxGeometry x="640" y="590" width="110" height="92.5" as="geometry" />
        </mxCell>
        <mxCell id="N4iwnwEbTLdC6Yckzgo1-38" style="edgeStyle=none;curved=1;rounded=0;orthogonalLoop=1;jettySize=auto;html=1;entryX=0.25;entryY=1;entryDx=0;entryDy=0;fontSize=12;startSize=8;endSize=8;" parent="1" source="N4iwnwEbTLdC6Yckzgo1-34" target="n-3YmuEq_ArL1xh5hyIa-5" edge="1">
          <mxGeometry relative="1" as="geometry" />
        </mxCell>
        <mxCell id="N4iwnwEbTLdC6Yckzgo1-34" value="idProvincia" style="ellipse;whiteSpace=wrap;html=1;fontSize=16;" parent="1" vertex="1">
          <mxGeometry x="90" y="490" width="120" height="80" as="geometry" />
        </mxCell>
        <mxCell id="N4iwnwEbTLdC6Yckzgo1-39" style="edgeStyle=none;curved=1;rounded=0;orthogonalLoop=1;jettySize=auto;html=1;fontSize=12;startSize=8;endSize=8;" parent="1" source="N4iwnwEbTLdC6Yckzgo1-35" edge="1">
          <mxGeometry relative="1" as="geometry">
            <mxPoint x="340" y="635" as="targetPoint" />
          </mxGeometry>
        </mxCell>
        <mxCell id="N4iwnwEbTLdC6Yckzgo1-35" value="nombre" style="ellipse;whiteSpace=wrap;html=1;fontSize=16;" parent="1" vertex="1">
          <mxGeometry x="80" y="600" width="150" height="70" as="geometry" />
        </mxCell>
        <mxCell id="N4iwnwEbTLdC6Yckzgo1-40" style="edgeStyle=none;curved=1;rounded=0;orthogonalLoop=1;jettySize=auto;html=1;fontSize=12;startSize=8;endSize=8;" parent="1" source="N4iwnwEbTLdC6Yckzgo1-36" edge="1">
          <mxGeometry relative="1" as="geometry">
            <mxPoint x="350" y="650" as="targetPoint" />
          </mxGeometry>
        </mxCell>
        <mxCell id="N4iwnwEbTLdC6Yckzgo1-36" value="idAlmacen" style="ellipse;whiteSpace=wrap;html=1;fontSize=16;fillColor=#e1d5e7;strokeColor=#9673a6;" parent="1" vertex="1">
          <mxGeometry x="90" y="690" width="130" height="80" as="geometry" />
        </mxCell>
        <mxCell id="N4iwnwEbTLdC6Yckzgo1-41" style="edgeStyle=none;curved=1;rounded=0;orthogonalLoop=1;jettySize=auto;html=1;fontSize=12;startSize=8;endSize=8;" parent="1" source="N4iwnwEbTLdC6Yckzgo1-37" edge="1">
          <mxGeometry relative="1" as="geometry">
            <mxPoint x="380" y="670" as="targetPoint" />
          </mxGeometry>
        </mxCell>
        <mxCell id="N4iwnwEbTLdC6Yckzgo1-37" value="extencion" style="ellipse;whiteSpace=wrap;html=1;fontSize=16;" parent="1" vertex="1">
          <mxGeometry x="190" y="760" width="120" height="80" as="geometry" />
        </mxCell>
        <mxCell id="N4iwnwEbTLdC6Yckzgo1-44" style="edgeStyle=none;curved=1;rounded=0;orthogonalLoop=1;jettySize=auto;html=1;fontSize=12;startSize=8;endSize=8;" parent="1" source="N4iwnwEbTLdC6Yckzgo1-42" edge="1">
          <mxGeometry relative="1" as="geometry">
            <mxPoint x="700" y="760" as="targetPoint" />
          </mxGeometry>
        </mxCell>
        <mxCell id="N4iwnwEbTLdC6Yckzgo1-42" value="Surte" style="rhombus;whiteSpace=wrap;html=1;fontSize=16;" parent="1" vertex="1">
          <mxGeometry x="475" y="710" width="80" height="80" as="geometry" />
        </mxCell>
        <mxCell id="N4iwnwEbTLdC6Yckzgo1-55" style="edgeStyle=none;curved=1;rounded=0;orthogonalLoop=1;jettySize=auto;html=1;entryX=1;entryY=0.5;entryDx=0;entryDy=0;fontSize=12;startSize=8;endSize=8;" parent="1" source="N4iwnwEbTLdC6Yckzgo1-45" target="N4iwnwEbTLdC6Yckzgo1-54" edge="1">
          <mxGeometry relative="1" as="geometry" />
        </mxCell>
        <mxCell id="N4iwnwEbTLdC6Yckzgo1-45" value="almacenes" style="rounded=0;whiteSpace=wrap;html=1;fontSize=16;" parent="1" vertex="1">
          <mxGeometry x="690" y="760" width="120" height="70" as="geometry" />
        </mxCell>
        <mxCell id="N4iwnwEbTLdC6Yckzgo1-51" style="edgeStyle=none;curved=1;rounded=0;orthogonalLoop=1;jettySize=auto;html=1;fontSize=12;startSize=8;endSize=8;" parent="1" source="N4iwnwEbTLdC6Yckzgo1-46" edge="1">
          <mxGeometry relative="1" as="geometry">
            <mxPoint x="750" y="830" as="targetPoint" />
          </mxGeometry>
        </mxCell>
        <mxCell id="N4iwnwEbTLdC6Yckzgo1-46" value="idAlmacen" style="ellipse;whiteSpace=wrap;html=1;fontSize=16;" parent="1" vertex="1">
          <mxGeometry x="827" y="930" width="120" height="80" as="geometry" />
        </mxCell>
        <mxCell id="N4iwnwEbTLdC6Yckzgo1-52" style="edgeStyle=none;curved=1;rounded=0;orthogonalLoop=1;jettySize=auto;html=1;fontSize=12;startSize=8;endSize=8;" parent="1" source="N4iwnwEbTLdC6Yckzgo1-47" edge="1">
          <mxGeometry relative="1" as="geometry">
            <mxPoint x="770" y="830" as="targetPoint" />
          </mxGeometry>
        </mxCell>
        <mxCell id="N4iwnwEbTLdC6Yckzgo1-47" value="f_apertura" style="ellipse;whiteSpace=wrap;html=1;fontSize=16;" parent="1" vertex="1">
          <mxGeometry x="790" y="830" width="120" height="80" as="geometry" />
        </mxCell>
        <mxCell id="N4iwnwEbTLdC6Yckzgo1-53" style="edgeStyle=none;curved=1;rounded=0;orthogonalLoop=1;jettySize=auto;html=1;entryX=1;entryY=0.5;entryDx=0;entryDy=0;fontSize=12;startSize=8;endSize=8;" parent="1" source="N4iwnwEbTLdC6Yckzgo1-48" target="N4iwnwEbTLdC6Yckzgo1-45" edge="1">
          <mxGeometry relative="1" as="geometry" />
        </mxCell>
        <mxCell id="N4iwnwEbTLdC6Yckzgo1-48" value="direccion" style="ellipse;whiteSpace=wrap;html=1;fontSize=16;" parent="1" vertex="1">
          <mxGeometry x="940" y="880" width="120" height="80" as="geometry" />
        </mxCell>
        <mxCell id="N4iwnwEbTLdC6Yckzgo1-50" style="edgeStyle=none;curved=1;rounded=0;orthogonalLoop=1;jettySize=auto;html=1;entryX=0.75;entryY=1;entryDx=0;entryDy=0;fontSize=12;startSize=8;endSize=8;" parent="1" source="N4iwnwEbTLdC6Yckzgo1-49" target="N4iwnwEbTLdC6Yckzgo1-45" edge="1">
          <mxGeometry relative="1" as="geometry" />
        </mxCell>
        <mxCell id="N4iwnwEbTLdC6Yckzgo1-49" value="idProvincia" style="ellipse;whiteSpace=wrap;html=1;fontSize=16;" parent="1" vertex="1">
          <mxGeometry x="850" y="720" width="150" height="90" as="geometry" />
        </mxCell>
        <mxCell id="N4iwnwEbTLdC6Yckzgo1-57" style="edgeStyle=none;curved=1;rounded=0;orthogonalLoop=1;jettySize=auto;html=1;entryX=1;entryY=0.5;entryDx=0;entryDy=0;fontSize=12;startSize=8;endSize=8;" parent="1" source="N4iwnwEbTLdC6Yckzgo1-54" target="N4iwnwEbTLdC6Yckzgo1-56" edge="1">
          <mxGeometry relative="1" as="geometry" />
        </mxCell>
        <mxCell id="N4iwnwEbTLdC6Yckzgo1-54" value="stock" style="rhombus;whiteSpace=wrap;html=1;fontSize=16;" parent="1" vertex="1">
          <mxGeometry x="425" y="840" width="80" height="80" as="geometry" />
        </mxCell>
        <mxCell id="N4iwnwEbTLdC6Yckzgo1-75" style="edgeStyle=none;curved=1;rounded=0;orthogonalLoop=1;jettySize=auto;html=1;entryX=0;entryY=0;entryDx=0;entryDy=0;fontSize=12;startSize=8;endSize=8;" parent="1" source="N4iwnwEbTLdC6Yckzgo1-56" target="N4iwnwEbTLdC6Yckzgo1-74" edge="1">
          <mxGeometry relative="1" as="geometry" />
        </mxCell>
        <mxCell id="N4iwnwEbTLdC6Yckzgo1-56" value="libros_cds" style="rounded=0;whiteSpace=wrap;html=1;fontSize=16;" parent="1" vertex="1">
          <mxGeometry x="190" y="930" width="120" height="60" as="geometry" />
        </mxCell>
        <mxCell id="N4iwnwEbTLdC6Yckzgo1-58" value="isbn" style="ellipse;whiteSpace=wrap;html=1;fontSize=16;fillColor=#e1d5e7;strokeColor=#9673a6;" parent="1" vertex="1">
          <mxGeometry x="350" y="740" width="120" height="80" as="geometry" />
        </mxCell>
        <mxCell id="N4iwnwEbTLdC6Yckzgo1-59" value="idalmacen" style="ellipse;whiteSpace=wrap;html=1;fontSize=16;fillColor=#e1d5e7;strokeColor=#9673a6;" parent="1" vertex="1">
          <mxGeometry x="600" y="910" width="120" height="80" as="geometry" />
        </mxCell>
        <mxCell id="N4iwnwEbTLdC6Yckzgo1-61" style="edgeStyle=none;curved=1;rounded=0;orthogonalLoop=1;jettySize=auto;html=1;entryX=0.5;entryY=1;entryDx=0;entryDy=0;fontSize=12;startSize=8;endSize=8;" parent="1" source="N4iwnwEbTLdC6Yckzgo1-60" target="N4iwnwEbTLdC6Yckzgo1-54" edge="1">
          <mxGeometry relative="1" as="geometry" />
        </mxCell>
        <mxCell id="N4iwnwEbTLdC6Yckzgo1-60" value="cantidad" style="ellipse;whiteSpace=wrap;html=1;fontSize=16;" parent="1" vertex="1">
          <mxGeometry x="455" y="970" width="120" height="70" as="geometry" />
        </mxCell>
        <mxCell id="N4iwnwEbTLdC6Yckzgo1-73" style="edgeStyle=none;curved=1;rounded=0;orthogonalLoop=1;jettySize=auto;html=1;fontSize=12;startSize=8;endSize=8;" parent="1" source="N4iwnwEbTLdC6Yckzgo1-64" edge="1">
          <mxGeometry relative="1" as="geometry">
            <mxPoint x="250" y="990" as="targetPoint" />
          </mxGeometry>
        </mxCell>
        <mxCell id="N4iwnwEbTLdC6Yckzgo1-64" value="editorial" style="ellipse;whiteSpace=wrap;html=1;fontSize=16;" parent="1" vertex="1">
          <mxGeometry x="-30" y="1070" width="120" height="80" as="geometry" />
        </mxCell>
        <mxCell id="N4iwnwEbTLdC6Yckzgo1-72" style="edgeStyle=none;curved=1;rounded=0;orthogonalLoop=1;jettySize=auto;html=1;fontSize=12;startSize=8;endSize=8;" parent="1" source="N4iwnwEbTLdC6Yckzgo1-65" edge="1">
          <mxGeometry relative="1" as="geometry">
            <mxPoint x="210" y="980" as="targetPoint" />
          </mxGeometry>
        </mxCell>
        <mxCell id="N4iwnwEbTLdC6Yckzgo1-65" value="autor" style="ellipse;whiteSpace=wrap;html=1;fontSize=16;" parent="1" vertex="1">
          <mxGeometry x="-110" y="990" width="120" height="80" as="geometry" />
        </mxCell>
        <mxCell id="N4iwnwEbTLdC6Yckzgo1-71" style="edgeStyle=none;curved=1;rounded=0;orthogonalLoop=1;jettySize=auto;html=1;fontSize=12;startSize=8;endSize=8;" parent="1" source="N4iwnwEbTLdC6Yckzgo1-66" edge="1">
          <mxGeometry relative="1" as="geometry">
            <mxPoint x="200" y="980" as="targetPoint" />
          </mxGeometry>
        </mxCell>
        <mxCell id="N4iwnwEbTLdC6Yckzgo1-66" value="isbn" style="ellipse;whiteSpace=wrap;html=1;fontSize=16;" parent="1" vertex="1">
          <mxGeometry x="-100" y="850" width="120" height="80" as="geometry" />
        </mxCell>
        <mxCell id="N4iwnwEbTLdC6Yckzgo1-70" style="edgeStyle=none;curved=1;rounded=0;orthogonalLoop=1;jettySize=auto;html=1;entryX=0.5;entryY=0;entryDx=0;entryDy=0;fontSize=12;startSize=8;endSize=8;" parent="1" source="N4iwnwEbTLdC6Yckzgo1-67" target="N4iwnwEbTLdC6Yckzgo1-56" edge="1">
          <mxGeometry relative="1" as="geometry" />
        </mxCell>
        <mxCell id="N4iwnwEbTLdC6Yckzgo1-67" value="Titulo" style="ellipse;whiteSpace=wrap;html=1;fontSize=16;" parent="1" vertex="1">
          <mxGeometry x="60" y="840" width="130" height="80" as="geometry" />
        </mxCell>
        <mxCell id="N4iwnwEbTLdC6Yckzgo1-69" style="edgeStyle=none;curved=1;rounded=0;orthogonalLoop=1;jettySize=auto;html=1;entryX=0;entryY=0.5;entryDx=0;entryDy=0;fontSize=12;startSize=8;endSize=8;" parent="1" source="N4iwnwEbTLdC6Yckzgo1-68" target="N4iwnwEbTLdC6Yckzgo1-56" edge="1">
          <mxGeometry relative="1" as="geometry" />
        </mxCell>
        <mxCell id="N4iwnwEbTLdC6Yckzgo1-68" value="idColeccion" style="ellipse;whiteSpace=wrap;html=1;fontSize=16;fillColor=#e1d5e7;strokeColor=#9673a6;" parent="1" vertex="1">
          <mxGeometry x="-100" y="740" width="140" height="80" as="geometry" />
        </mxCell>
        <mxCell id="N4iwnwEbTLdC6Yckzgo1-79" style="edgeStyle=none;curved=1;rounded=0;orthogonalLoop=1;jettySize=auto;html=1;entryX=0.5;entryY=0;entryDx=0;entryDy=0;fontSize=12;startSize=8;endSize=8;" parent="1" source="N4iwnwEbTLdC6Yckzgo1-74" target="N4iwnwEbTLdC6Yckzgo1-76" edge="1">
          <mxGeometry relative="1" as="geometry" />
        </mxCell>
        <mxCell id="N4iwnwEbTLdC6Yckzgo1-74" value="Se encuentran" style="rhombus;whiteSpace=wrap;html=1;fontSize=16;" parent="1" vertex="1">
          <mxGeometry x="255" y="1070" width="80" height="90" as="geometry" />
        </mxCell>
        <mxCell id="N4iwnwEbTLdC6Yckzgo1-76" value="Colecciones" style="rounded=0;whiteSpace=wrap;html=1;fontSize=16;" parent="1" vertex="1">
          <mxGeometry x="240" y="1220" width="120" height="60" as="geometry" />
        </mxCell>
        <mxCell id="N4iwnwEbTLdC6Yckzgo1-81" style="edgeStyle=none;curved=1;rounded=0;orthogonalLoop=1;jettySize=auto;html=1;entryX=0;entryY=0.75;entryDx=0;entryDy=0;fontSize=12;startSize=8;endSize=8;" parent="1" source="N4iwnwEbTLdC6Yckzgo1-77" target="N4iwnwEbTLdC6Yckzgo1-76" edge="1">
          <mxGeometry relative="1" as="geometry" />
        </mxCell>
        <mxCell id="N4iwnwEbTLdC6Yckzgo1-77" value="idCoeccion" style="ellipse;whiteSpace=wrap;html=1;fontSize=16;" parent="1" vertex="1">
          <mxGeometry x="50" y="1210" width="120" height="80" as="geometry" />
        </mxCell>
        <mxCell id="N4iwnwEbTLdC6Yckzgo1-80" style="edgeStyle=none;curved=1;rounded=0;orthogonalLoop=1;jettySize=auto;html=1;entryX=1;entryY=0.5;entryDx=0;entryDy=0;fontSize=12;startSize=8;endSize=8;" parent="1" source="N4iwnwEbTLdC6Yckzgo1-78" target="N4iwnwEbTLdC6Yckzgo1-76" edge="1">
          <mxGeometry relative="1" as="geometry" />
        </mxCell>
        <mxCell id="N4iwnwEbTLdC6Yckzgo1-78" value="volumen" style="ellipse;whiteSpace=wrap;html=1;fontSize=16;" parent="1" vertex="1">
          <mxGeometry x="440" y="1200" width="120" height="80" as="geometry" />
        </mxCell>
        <mxCell id="N4iwnwEbTLdC6Yckzgo1-84" value="Text" style="text;html=1;strokeColor=none;fillColor=none;align=center;verticalAlign=middle;whiteSpace=wrap;rounded=0;fontSize=16;" parent="1" vertex="1">
          <mxGeometry x="410" y="860" width="60" height="920" as="geometry" />
        </mxCell>
        <mxCell id="N4iwnwEbTLdC6Yckzgo1-85" value="(n,1)" style="text;html=1;strokeColor=none;fillColor=none;align=center;verticalAlign=middle;whiteSpace=wrap;rounded=0;fontSize=16;" parent="1" vertex="1">
          <mxGeometry x="370" y="1120" width="60" height="10" as="geometry" />
        </mxCell>
        <mxCell id="N4iwnwEbTLdC6Yckzgo1-86" value="1" style="text;html=1;strokeColor=none;fillColor=none;align=center;verticalAlign=middle;whiteSpace=wrap;rounded=0;fontSize=16;" parent="1" vertex="1">
          <mxGeometry x="245" y="1000" width="80" height="30" as="geometry" />
        </mxCell>
        <mxCell id="N4iwnwEbTLdC6Yckzgo1-87" value="n" style="text;html=1;strokeColor=none;fillColor=none;align=center;verticalAlign=middle;whiteSpace=wrap;rounded=0;fontSize=16;" parent="1" vertex="1">
          <mxGeometry x="215" y="1010" width="45" height="20" as="geometry" />
        </mxCell>
        <mxCell id="N4iwnwEbTLdC6Yckzgo1-88" style="edgeStyle=none;curved=1;rounded=0;orthogonalLoop=1;jettySize=auto;html=1;entryX=0.75;entryY=1;entryDx=0;entryDy=0;fontSize=12;startSize=8;endSize=8;" parent="1" source="N4iwnwEbTLdC6Yckzgo1-87" target="N4iwnwEbTLdC6Yckzgo1-87" edge="1">
          <mxGeometry relative="1" as="geometry" />
        </mxCell>
        <mxCell id="N4iwnwEbTLdC6Yckzgo1-89" value="1" style="text;html=1;strokeColor=none;fillColor=none;align=center;verticalAlign=middle;whiteSpace=wrap;rounded=0;fontSize=16;" parent="1" vertex="1">
          <mxGeometry x="299" y="1169" width="70" height="50" as="geometry" />
        </mxCell>
        <mxCell id="N4iwnwEbTLdC6Yckzgo1-90" value="N" style="text;html=1;strokeColor=none;fillColor=none;align=center;verticalAlign=middle;whiteSpace=wrap;rounded=0;fontSize=16;" parent="1" vertex="1">
          <mxGeometry x="210" y="1180" width="60" height="20" as="geometry" />
        </mxCell>
        <mxCell id="6304Ums_v-x044-W0x1L-2" style="edgeStyle=orthogonalEdgeStyle;rounded=0;orthogonalLoop=1;jettySize=auto;html=1;entryX=1;entryY=1;entryDx=0;entryDy=0;" edge="1" parent="1" source="N4iwnwEbTLdC6Yckzgo1-59" target="N4iwnwEbTLdC6Yckzgo1-54">
          <mxGeometry relative="1" as="geometry" />
        </mxCell>
        <mxCell id="6304Ums_v-x044-W0x1L-3" style="edgeStyle=orthogonalEdgeStyle;rounded=0;orthogonalLoop=1;jettySize=auto;html=1;entryX=0.388;entryY=0.175;entryDx=0;entryDy=0;entryPerimeter=0;" edge="1" parent="1" source="N4iwnwEbTLdC6Yckzgo1-58" target="N4iwnwEbTLdC6Yckzgo1-54">
          <mxGeometry relative="1" as="geometry" />
        </mxCell>
        <mxCell id="6304Ums_v-x044-W0x1L-4" value="n" style="text;html=1;strokeColor=none;fillColor=none;align=center;verticalAlign=middle;whiteSpace=wrap;rounded=0;" vertex="1" parent="1">
          <mxGeometry x="620" y="790" width="60" height="30" as="geometry" />
        </mxCell>
        <mxCell id="6304Ums_v-x044-W0x1L-5" value="1" style="text;html=1;strokeColor=none;fillColor=none;align=center;verticalAlign=middle;whiteSpace=wrap;rounded=0;" vertex="1" parent="1">
          <mxGeometry x="665" y="830" width="60" height="30" as="geometry" />
        </mxCell>
        <mxCell id="6304Ums_v-x044-W0x1L-6" value="1" style="text;html=1;strokeColor=none;fillColor=none;align=center;verticalAlign=middle;whiteSpace=wrap;rounded=0;" vertex="1" parent="1">
          <mxGeometry x="300" y="890" width="60" height="30" as="geometry" />
        </mxCell>
        <mxCell id="6304Ums_v-x044-W0x1L-7" value="n" style="text;html=1;strokeColor=none;fillColor=none;align=center;verticalAlign=middle;whiteSpace=wrap;rounded=0;" vertex="1" parent="1">
          <mxGeometry x="320" y="970" width="60" height="30" as="geometry" />
        </mxCell>
        <mxCell id="6304Ums_v-x044-W0x1L-8" value="(n,m)" style="text;html=1;strokeColor=none;fillColor=none;align=center;verticalAlign=middle;whiteSpace=wrap;rounded=0;" vertex="1" parent="1">
          <mxGeometry x="475" y="820" width="60" height="30" as="geometry" />
        </mxCell>
        <mxCell id="6304Ums_v-x044-W0x1L-9" value="1" style="text;html=1;strokeColor=none;fillColor=none;align=center;verticalAlign=middle;whiteSpace=wrap;rounded=0;" vertex="1" parent="1">
          <mxGeometry x="690" y="720" width="60" height="30" as="geometry" />
        </mxCell>
        <mxCell id="6304Ums_v-x044-W0x1L-10" value="1" style="text;html=1;strokeColor=none;fillColor=none;align=center;verticalAlign=middle;whiteSpace=wrap;rounded=0;" vertex="1" parent="1">
          <mxGeometry x="640" y="760" width="60" height="30" as="geometry" />
        </mxCell>
        <mxCell id="6304Ums_v-x044-W0x1L-11" value="n" style="text;html=1;strokeColor=none;fillColor=none;align=center;verticalAlign=middle;whiteSpace=wrap;rounded=0;" vertex="1" parent="1">
          <mxGeometry x="440" y="670" width="60" height="30" as="geometry" />
        </mxCell>
        <mxCell id="6304Ums_v-x044-W0x1L-12" value="1" style="text;html=1;strokeColor=none;fillColor=none;align=center;verticalAlign=middle;whiteSpace=wrap;rounded=0;" vertex="1" parent="1">
          <mxGeometry x="384" y="675" width="60" height="30" as="geometry" />
        </mxCell>
        <mxCell id="6304Ums_v-x044-W0x1L-13" value="1" style="text;html=1;strokeColor=none;fillColor=none;align=center;verticalAlign=middle;whiteSpace=wrap;rounded=0;" vertex="1" parent="1">
          <mxGeometry x="455" y="610" width="60" height="30" as="geometry" />
        </mxCell>
        <mxCell id="6304Ums_v-x044-W0x1L-14" value="1" style="text;html=1;strokeColor=none;fillColor=none;align=center;verticalAlign=middle;whiteSpace=wrap;rounded=0;" vertex="1" parent="1">
          <mxGeometry x="455" y="640" width="60" height="30" as="geometry" />
        </mxCell>
        <mxCell id="6304Ums_v-x044-W0x1L-15" value="1" style="text;html=1;strokeColor=none;fillColor=none;align=center;verticalAlign=middle;whiteSpace=wrap;rounded=0;" vertex="1" parent="1">
          <mxGeometry x="820" y="610" width="60" height="30" as="geometry" />
        </mxCell>
        <mxCell id="6304Ums_v-x044-W0x1L-16" value="n" style="text;html=1;strokeColor=none;fillColor=none;align=center;verticalAlign=middle;whiteSpace=wrap;rounded=0;" vertex="1" parent="1">
          <mxGeometry x="820" y="650" width="60" height="30" as="geometry" />
        </mxCell>
        <mxCell id="6304Ums_v-x044-W0x1L-17" value="(1,n)" style="text;html=1;align=center;verticalAlign=middle;resizable=0;points=[];autosize=1;strokeColor=none;fillColor=none;" vertex="1" parent="1">
          <mxGeometry x="615" y="568" width="50" height="30" as="geometry" />
        </mxCell>
        <mxCell id="6304Ums_v-x044-W0x1L-18" value="1" style="text;html=1;align=center;verticalAlign=middle;resizable=0;points=[];autosize=1;strokeColor=none;fillColor=none;" vertex="1" parent="1">
          <mxGeometry x="785" y="58" width="30" height="30" as="geometry" />
        </mxCell>
        <mxCell id="6304Ums_v-x044-W0x1L-19" value="1" style="text;html=1;align=center;verticalAlign=middle;resizable=0;points=[];autosize=1;strokeColor=none;fillColor=none;" vertex="1" parent="1">
          <mxGeometry x="955" y="-42" width="30" height="30" as="geometry" />
        </mxCell>
        <mxCell id="6304Ums_v-x044-W0x1L-20" value="1" style="text;html=1;align=center;verticalAlign=middle;resizable=0;points=[];autosize=1;strokeColor=none;fillColor=none;" vertex="1" parent="1">
          <mxGeometry x="765" y="78" width="30" height="30" as="geometry" />
        </mxCell>
        <mxCell id="6304Ums_v-x044-W0x1L-21" value="n" style="text;html=1;align=center;verticalAlign=middle;resizable=0;points=[];autosize=1;strokeColor=none;fillColor=none;" vertex="1" parent="1">
          <mxGeometry x="755" y="128" width="30" height="30" as="geometry" />
        </mxCell>
        <mxCell id="6304Ums_v-x044-W0x1L-22" value="(1,n)" style="text;html=1;align=center;verticalAlign=middle;resizable=0;points=[];autosize=1;strokeColor=none;fillColor=none;" vertex="1" parent="1">
          <mxGeometry x="655" y="48" width="50" height="30" as="geometry" />
        </mxCell>
        <mxCell id="6304Ums_v-x044-W0x1L-23" value="n" style="text;html=1;align=center;verticalAlign=middle;resizable=0;points=[];autosize=1;strokeColor=none;fillColor=none;" vertex="1" parent="1">
          <mxGeometry x="565" y="78" width="30" height="30" as="geometry" />
        </mxCell>
        <mxCell id="6304Ums_v-x044-W0x1L-24" value="1" style="text;html=1;align=center;verticalAlign=middle;resizable=0;points=[];autosize=1;strokeColor=none;fillColor=none;" vertex="1" parent="1">
          <mxGeometry x="555" y="128" width="30" height="30" as="geometry" />
        </mxCell>
        <mxCell id="6304Ums_v-x044-W0x1L-25" value="(1,n)" style="text;html=1;align=center;verticalAlign=middle;resizable=0;points=[];autosize=1;strokeColor=none;fillColor=none;" vertex="1" parent="1">
          <mxGeometry x="665" y="-82" width="50" height="30" as="geometry" />
        </mxCell>
        <mxCell id="6304Ums_v-x044-W0x1L-27" value="" style="edgeStyle=orthogonalEdgeStyle;rounded=0;orthogonalLoop=1;jettySize=auto;html=1;" edge="1" parent="1" source="6304Ums_v-x044-W0x1L-26" target="N4iwnwEbTLdC6Yckzgo1-7">
          <mxGeometry relative="1" as="geometry" />
        </mxCell>
        <mxCell id="6304Ums_v-x044-W0x1L-26" value="1" style="text;html=1;align=center;verticalAlign=middle;resizable=0;points=[];autosize=1;strokeColor=none;fillColor=none;" vertex="1" parent="1">
          <mxGeometry x="525" y="158" width="30" height="30" as="geometry" />
        </mxCell>
        <mxCell id="6304Ums_v-x044-W0x1L-28" value="1" style="text;html=1;align=center;verticalAlign=middle;resizable=0;points=[];autosize=1;strokeColor=none;fillColor=none;" vertex="1" parent="1">
          <mxGeometry x="495" y="168" width="30" height="30" as="geometry" />
        </mxCell>
        <mxCell id="6304Ums_v-x044-W0x1L-29" value="n" style="text;html=1;align=center;verticalAlign=middle;resizable=0;points=[];autosize=1;strokeColor=none;fillColor=none;" vertex="1" parent="1">
          <mxGeometry x="535" y="348" width="30" height="30" as="geometry" />
        </mxCell>
        <mxCell id="6304Ums_v-x044-W0x1L-30" value="1" style="text;html=1;align=center;verticalAlign=middle;resizable=0;points=[];autosize=1;strokeColor=none;fillColor=none;" vertex="1" parent="1">
          <mxGeometry x="465" y="348" width="30" height="30" as="geometry" />
        </mxCell>
        <mxCell id="6304Ums_v-x044-W0x1L-31" value="(1,n)" style="text;html=1;align=center;verticalAlign=middle;resizable=0;points=[];autosize=1;strokeColor=none;fillColor=none;" vertex="1" parent="1">
          <mxGeometry x="595" y="248" width="50" height="30" as="geometry" />
        </mxCell>
      </root>
    </mxGraphModel>
  </diagram>
</mxfile>
